<svg viewBox="0 0 32 32" xmlns="http://www.w3.org/2000/svg" shape-rendering="crispEdges">
  <!-- Background: warm beachy pastel -->
  <rect width="32" height="32" fill="#FFF5EE"/>

  <!-- Body (rounded center) -->
  <ellipse cx="16" cy="16" rx="7" ry="5" fill="#F56C57"/>

  <!-- Shell highlight -->
  <ellipse cx="16" cy="14.5" rx="5" ry="1.5" fill="#FF8673" opacity="0.5"/>

  <!-- Legs (3 per side) -->
  <path d="M8 16 Q6 16 6 17" stroke="#F56C57" stroke-width="1.5" fill="none"/>
  <path d="M8 17 Q6 17 6 18" stroke="#F56C57" stroke-width="1.5" fill="none"/>
  <path d="M8 18 Q6 18 6 19" stroke="#F56C57" stroke-width="1.5" fill="none"/>
  <path d="M24 16 Q26 16 26 17" stroke="#F56C57" stroke-width="1.5" fill="none"/>
  <path d="M24 17 Q26 17 26 18" stroke="#F56C57" stroke-width="1.5" fill="none"/>
  <path d="M24 18 Q26 18 26 19" stroke="#F56C57" stroke-width="1.5" fill="none"/>

  <!-- Claws -->
  <path d="M10 13 Q7 11 6 13 Q8 12 9 14" fill="#F56C57"/>
  <path d="M22 13 Q25 11 26 13 Q24 12 23 14" fill="#F56C57"/>

  <!-- Eyes -->
  <circle cx="13" cy="15" r="2" fill="#FFFFFF"/>
  <circle cx="19" cy="15" r="2" fill="#FFFFFF"/>
  <circle cx="13" cy="15" r="1" fill="#3A3A3A"/>
  <circle cx="19" cy="15" r="1" fill="#3A3A3A"/>
  <circle cx="12.5" cy="14.5" r="0.5" fill="#FFEFEF"/>
  <circle cx="18.5" cy="14.5" r="0.5" fill="#FFEFEF"/>

  <!-- Blush -->
  <circle cx="11.2" cy="17.3" r="0.7" fill="#FF9AA2"/>
  <circle cx="20.8" cy="17.3" r="0.7" fill="#FF9AA2"/>

  <!-- Smile -->
  <path d="M13.5 18.5 Q16 19.5 18.5 18.5" fill="none" stroke="#8B3A3A" stroke-width="0.6" stroke-linecap="round"/>
</svg>
